<svg xmlns="http://www.w3.org/2000/svg" viewBox="0 0 32 32"><style>@media (prefers-color-scheme:light){.logo-bg{fill:#5672c7}.logo-primary{fill:#759ec1}.logo-secondary{fill:#a8d2d7}.logo-accent{fill:#5773c8}}@media (prefers-color-scheme:dark){.logo-bg{fill:#6682d7}.logo-primary{fill:#8bb4d1}.logo-secondary{fill:#b8dce7}.logo-accent{fill:#6783d8}}</style><circle cx="16" cy="16" r="15" class="logo-bg"/><path d="M8 12c0-2 1-4 3-5s4-1 6 0c1 1 2 2 2 4v6c0 2-1 4-3 5s-4 1-6 0c-1-1-2-2-2-4v-6z" class="logo-primary"/><path d="M12 8c2-1 4 0 5 1s2 3 2 5v4c0 1-1 2-2 2h-6c-1 0-2-1-2-2v-4c0-2 1-4 3-6z" class="logo-secondary"/><rect width="12" height="6" x="10" y="22" class="logo-accent" rx="3"/><ellipse cx="16" cy="14" fill="#fff" opacity=".2" rx="4" ry="6"/></svg>